<svg width="25" height="24" viewBox="0 0 25 24" fill="none" xmlns="http://www.w3.org/2000/svg">
<path d="M19.0425 8.54508L12.5017 15.0858L5.96101 8.54508C5.91219 8.49628 5.85959 8.45348 5.80414 8.41688C5.41598 8.16058 4.8885 8.20338 4.5468 8.54508C4.30272 8.78908 4.21119 9.12798 4.27221 9.44318C4.30882 9.63228 4.40035 9.81278 4.5468 9.95928L11.7946 17.2071C11.9822 17.3946 12.2365 17.5 12.5017 17.5C12.7669 17.5 13.0213 17.3946 13.2088 17.2071L20.4567 9.95928C20.8472 9.56878 20.8472 8.93558 20.4567 8.54508C20.0662 8.15448 19.433 8.15448 19.0425 8.54508Z" fill="white"/>
</svg>
