<svg width="24" height="25" viewBox="0 0 24 25" fill="none" xmlns="http://www.w3.org/2000/svg">
<path d="M17.655 15.3266L16.2408 13.9124L17.655 12.4982C19.2171 10.9361 19.2171 8.40343 17.655 6.84133C16.0929 5.27923 13.5602 5.27923 11.9981 6.84133L10.5839 8.25554L9.16976 6.84133L10.5839 5.42712C12.9271 3.08397 16.7261 3.08397 19.0692 5.42712C21.4123 7.77026 21.4123 11.5693 19.0692 13.9124L17.655 15.3266ZM14.8266 18.1551L13.4123 19.5693C11.0692 21.9124 7.27026 21.9124 4.92712 19.5693C2.58397 17.2261 2.58397 13.4271 4.92712 11.084L6.34133 9.66976L7.75554 11.084L6.34133 12.4982C4.77923 14.0603 4.77923 16.593 6.34133 18.1551C7.90343 19.7172 10.436 19.7172 11.9981 18.1551L13.4123 16.7409L14.8266 18.1551ZM14.8266 8.25554L16.2408 9.66976L9.16976 16.7409L7.75554 15.3266L14.8266 8.25554ZM5.77344 2.79108L7.70529 2.27344L8.74057 6.13714L6.80872 6.65478L5.77344 2.79108ZM15.2558 18.8593L17.1876 18.3416L18.2229 22.2053L16.291 22.723L15.2558 18.8593ZM2.29108 6.27344L6.15478 7.30871L5.63714 9.24057L1.77344 8.20529L2.29108 6.27344ZM18.3592 15.7558L22.2229 16.7911L21.7052 18.723L17.8415 17.6877L18.3592 15.7558Z" fill="#17181C"/>
</svg>
