<svg width="18" height="18" viewBox="0 0 18 18" fill="none" xmlns="http://www.w3.org/2000/svg">
<path d="M8.25 4.5C8.25 4.08578 7.91423 3.75 7.5 3.75H3C2.17155 3.75 1.5 4.42155 1.5 5.25V15C1.5 15.8285 2.17155 16.5 3 16.5H12.75C13.5785 16.5 14.25 15.8285 14.25 15V10.5C14.25 10.0858 13.9142 9.75 13.5 9.75C13.0858 9.75 12.75 10.0858 12.75 10.5V15H3V5.25H7.5C7.91423 5.25 8.25 4.91422 8.25 4.5Z" fill="black"/>
<path fill-rule="evenodd" clip-rule="evenodd" d="M13.9402 3H11.2509C10.8367 3 10.5009 2.66422 10.5009 2.25C10.5009 1.83577 10.8367 1.5 11.2509 1.5H15.7509C16.1651 1.5 16.5009 1.83577 16.5009 2.25V6.75C16.5009 7.16422 16.1651 7.5 15.7509 7.5C15.3367 7.5 15.0009 7.16422 15.0009 6.75V4.06065L7.81155 11.25C7.51867 11.5429 7.04378 11.5429 6.75091 11.25C6.45803 10.9571 6.45803 10.4822 6.75091 10.1893L13.9402 3Z" fill="black"/>
</svg>
